<?xml version="1.0" encoding="utf-8"?>
<!-- Generator: Adobe Illustrator 23.0.4, SVG Export Plug-In . SVG Version: 6.00 Build 0)  -->
<svg version="1.1" xmlns="http://www.w3.org/2000/svg" xmlns:xlink="http://www.w3.org/1999/xlink" x="0px" y="0px"
	 viewBox="0 0 5669.3 5669.3" style="enable-background:new 0 0 5669.3 5669.3;" xml:space="preserve">
<style type="text/css">
	.st0{clip-path:url(#XMLID_3_);}
	.st1{opacity:8.000000e-02;fill:#81CDC1;}
	.st2{opacity:0.1;fill:#A6CDC7;enable-background:new    ;}
	.st3{fill:none;stroke:#81CDC1;stroke-width:15;stroke-linecap:round;stroke-miterlimit:10;}
	.st4{fill:none;stroke:#FFFFFF;stroke-width:15;stroke-linecap:round;stroke-miterlimit:10;}
	.st5{fill:none;stroke:#F3F9F8;stroke-width:15;stroke-linecap:round;stroke-miterlimit:10;}
	.st6{opacity:0.66;fill:#FFFFFF;stroke:#96D7DC;stroke-width:15;stroke-linecap:round;stroke-miterlimit:10;}
	.st7{opacity:0.55;}
	.st8{opacity:0.1;fill:#0E9782;enable-background:new    ;}
	.st9{fill:none;stroke:#F15740;stroke-width:15;stroke-miterlimit:10;}
	.st10{fill:#F15740;}
	.st11{fill:#FFFFFF;}
	.st12{fill:none;stroke:#FFFFFF;stroke-width:15;stroke-miterlimit:10;}
	.st13{opacity:0.5;fill:#439483;}
	.st14{fill:none;stroke:#FFFFFF;stroke-width:15;stroke-linecap:square;stroke-miterlimit:10;}
	.st15{fill:#F2F9F9;stroke:#81CDC1;stroke-width:15;stroke-miterlimit:10;}
</style>
<g id="Template">
	<g>
		<defs>
			<path id="XMLID_1_" d="M198.9,4456.2c0-1481.6,1201.1-2682.8,2682.8-2682.8s2682.8,1201.1,2682.8,2682.8"/>
		</defs>
		<use xlink:href="#XMLID_1_"  style="overflow:visible;opacity:0.11;fill:#81CDC1;"/>
		<clipPath id="XMLID_3_">
			<use xlink:href="#XMLID_1_"  style="overflow:visible;opacity:0.11;"/>
		</clipPath>
		<g class="st0">
			<path class="st1" d="M1428.2,3313.2h-392.3v-84.8c0-11.2-9.1-20.3-20.3-20.3c0,0,0,0,0,0H900.4v-90.4c0-7.1-5.7-12.8-12.8-12.8
				l0,0H739.2c-7.1,0-12.8,5.7-12.8,12.8v90.4H591.1c-11.2,0-20.3,9-20.4,20.2c0,0,0,0,0,0.1v84.8l0,0h-374c-2.3,0-4.1,1.9-4.1,4.1
				v1126.5c0,2.3,1.8,4.1,4.1,4.1h248.6c2.3,0,4.1-1.9,4.1-4.1v-151.6c0-2.3,1.9-4.1,4.1-4.1h105c2.3,0,4.1,1.9,4.1,4.1v151.5
				c0,2.3,1.8,4.1,4.1,4.1h491.3c2.3,0,4.1-1.9,4.1-4.1v-151.5c0-2.3,1.8-4.1,4.1-4.1h105c2.3,0,4.1,1.9,4.1,4.1v151.5
				c0,2.3,1.9,4.1,4.1,4.1h248.6c2.3,0,4.1-1.9,4.1-4.1V3317.3C1432.4,3315.1,1430.5,3313.2,1428.2,3313.2z M413.9,4235.4
				c0,2.3-1.8,4.1-4.1,4.1H256.2c-2.3,0-4.1-1.8-4.1-4.1c0,0,0,0,0,0V4183c0-2.3,1.8-4.1,4.1-4.1c0,0,0,0,0,0h153.6
				c2.3,0,4.1,1.9,4.1,4.1L413.9,4235.4z M413.9,4099.9c0,2.3-1.8,4.1-4.1,4.1H256.2c-2.3,0-4.1-1.8-4.1-4.1c0,0,0,0,0,0v-52.4
				c0-2.3,1.8-4.1,4.1-4.1c0,0,0,0,0,0h153.6c2.3,0,4.1,1.9,4.1,4.1l0,0L413.9,4099.9z M413.9,3964.4c0,2.3-1.8,4.1-4.1,4.1H256.2
				c-2.3,0-4.1-1.8-4.1-4.1V3912c0-2.3,1.8-4.1,4.1-4.1c0,0,0,0,0,0h153.6c2.3,0,4.1,1.9,4.1,4.1L413.9,3964.4z M413.9,3828.9
				c0,2.3-1.8,4.1-4.1,4.1c0,0,0,0,0,0H256.2c-2.3,0-4.1-1.8-4.1-4.1c0,0,0,0,0,0v-52.4c0-2.3,1.8-4.1,4.1-4.1c0,0,0,0,0,0h153.6
				c2.3,0,4.1,1.8,4.1,4.1c0,0,0,0,0,0L413.9,3828.9z M413.9,3693.4c0,2.3-1.8,4.1-4.1,4.1H256.2c-2.3,0-4.1-1.8-4.1-4.1
				c0,0,0,0,0,0v-52.5c0-2.3,1.8-4.1,4.1-4.1c0,0,0,0,0,0h153.6c2.3,0,4.1,1.8,4.1,4.1L413.9,3693.4z M413.9,3557.9
				c0,2.3-1.8,4.1-4.1,4.1H256.2c-2.3,0-4.1-1.8-4.1-4.1c0,0,0,0,0,0v-52.5c0-2.3,1.8-4.1,4.1-4.1h153.6c2.3,0,4.1,1.9,4.1,4.1
				L413.9,3557.9z M413.9,3422.3c0,2.3-1.8,4.1-4.1,4.1h0H256.2c-2.3,0-4.1-1.8-4.1-4.1c0,0,0,0,0,0v-52.4c0-2.3,1.8-4.1,4.1-4.1
				c0,0,0,0,0,0h153.6c2.3,0,4.1,1.9,4.1,4.1v0L413.9,3422.3z M778,4235.5c0,2.3-1.8,4.1-4.1,4.1c0,0,0,0,0,0H620.3
				c-2.3,0-4.1-1.8-4.1-4.1V4183c0-2.3,1.9-4.1,4.1-4.1h153.6c2.3,0,4.1,1.8,4.1,4.1c0,0,0,0,0,0V4235.5z M778,4100
				c0,2.3-1.8,4.1-4.1,4.1c0,0,0,0,0,0H620.3c-2.3,0-4.1-1.9-4.1-4.1v-52.5c0-2.3,1.9-4.1,4.1-4.1h153.6c2.3,0,4.1,1.8,4.1,4.1
				c0,0,0,0,0,0V4100z M778,3964.5c0,2.3-1.8,4.1-4.1,4.1H620.3c-2.3,0-4.1-1.8-4.1-4.1V3912c0-2.3,1.9-4.1,4.1-4.1h153.6
				c2.3,0,4.1,1.8,4.1,4.1c0,0,0,0,0,0V3964.5z M778,3828.9c0,2.3-1.8,4.1-4.1,4.1c0,0,0,0,0,0H620.3c-2.3,0-4.1-1.8-4.1-4.1
				c0,0,0,0,0,0v-52.5c0-2.3,1.8-4.1,4.1-4.1c0,0,0,0,0,0h153.6c2.3,0,4.1,1.8,4.1,4.1c0,0,0,0,0,0V3828.9z M778,3693.4
				c0,2.3-1.8,4.1-4.1,4.1c0,0,0,0,0,0H620.3c-2.3,0-4.1-1.9-4.1-4.1v-52.5c0-2.3,1.9-4.1,4.1-4.1h153.6c2.3,0,4.1,1.8,4.1,4.1
				c0,0,0,0,0,0V3693.4z M778,3557.9c0,2.3-1.8,4.1-4.1,4.1c0,0,0,0,0,0H620.3c-2.3,0-4.1-1.8-4.1-4.1v-52.5c0-2.3,1.9-4.1,4.1-4.1
				h153.6c2.3,0,4.1,1.9,4.1,4.1V3557.9z M778,3422.4c0,2.3-1.8,4.1-4.1,4.1c0,0,0,0,0,0H620.3c-2.3,0-4.1-1.9-4.1-4.1v-52.5
				c0-2.3,1.9-4.1,4.1-4.1h153.6c2.3,0,4.1,1.8,4.1,4.1c0,0,0,0,0,0V3422.4z M1026.8,4235.5c0,2.3-1.9,4.1-4.1,4.1h0H869.1
				c-2.3,0-4.1-1.8-4.1-4.1V4183c0-2.3,1.8-4.1,4.1-4.1h153.6c2.3,0,4.1,1.9,4.1,4.1L1026.8,4235.5z M1026.8,4100
				c0,2.3-1.8,4.1-4.1,4.1c0,0,0,0,0,0H869.1c-2.3,0-4.1-1.9-4.1-4.1v-52.5c0-2.3,1.8-4.1,4.1-4.1h153.6c2.3,0,4.1,1.8,4.1,4.1
				c0,0,0,0,0,0L1026.8,4100z M1026.8,3964.5c0,2.3-1.9,4.1-4.1,4.1H869.1c-2.3,0-4.1-1.8-4.1-4.1V3912c0-2.3,1.8-4.1,4.1-4.1h153.6
				c2.3,0,4.1,1.9,4.1,4.1L1026.8,3964.5z M1026.8,3829c0,2.3-1.8,4.1-4.1,4.1c0,0,0,0,0,0H869.1c-2.3,0-4.1-1.8-4.1-4.1v-52.6
				c0-2.3,1.8-4.1,4.1-4.1h153.6c2.3,0,4.1,1.8,4.1,4.1c0,0,0,0,0,0L1026.8,3829z M1026.8,3693.5c0,2.3-1.9,4.1-4.1,4.1H869.1
				c-2.3,0-4.1-1.9-4.1-4.1v-52.6c0-2.3,1.8-4.1,4.1-4.1h153.6c2.3,0,4.1,1.8,4.1,4.1l0,0L1026.8,3693.5z M1026.8,3558
				c0,2.3-1.9,4.1-4.1,4.1l0,0H869.1c-2.3,0-4.1-1.8-4.1-4.1v-52.6c0-2.3,1.8-4.1,4.1-4.1h153.6c2.3,0,4.1,1.9,4.1,4.1L1026.8,3558z
				 M1026.8,3422.5c0,2.3-1.8,4.1-4.1,4.1c0,0,0,0,0,0H869.1c-2.3,0-4.1-1.9-4.1-4.1v-52.5c0-2.3,1.8-4.1,4.1-4.1h153.6
				c2.3,0,4.1,1.8,4.1,4.1c0,0,0,0,0,0L1026.8,3422.5z M1390.9,4235.4c0,2.3-1.9,4.1-4.1,4.1h-153.6c-2.3,0-4.1-1.8-4.1-4.1l0,0
				V4183c0-2.3,1.9-4.1,4.1-4.1h153.6c2.3,0,4.2,1.8,4.2,4.1c0,0,0,0,0,0V4235.4z M1390.9,4099.9c0,2.3-1.9,4.1-4.1,4.1h-153.6
				c-2.3,0-4.1-1.8-4.1-4.1c0,0,0,0,0,0v-52.4c0-2.3,1.8-4.1,4.1-4.1c0,0,0,0,0,0h153.6c2.3,0,4.1,1.9,4.1,4.1L1390.9,4099.9z
				 M1390.9,3964.4c0,2.3-1.9,4.1-4.1,4.1h-153.6c-2.3,0-4.1-1.8-4.1-4.1V3912c0-2.3,1.9-4.1,4.1-4.1h153.6c2.3,0,4.2,1.8,4.2,4.1
				c0,0,0,0,0,0V3964.4z M1390.9,3828.9c0,2.3-1.8,4.1-4.1,4.1c0,0,0,0,0,0h-153.6c-2.3,0-4.1-1.8-4.1-4.1c0,0,0,0,0,0v-52.4
				c0-2.3,1.8-4.1,4.1-4.1c0,0,0,0,0,0h153.6c2.3,0,4.1,1.8,4.1,4.1c0,0,0,0,0,0L1390.9,3828.9z M1390.9,3693.4
				c0,2.3-1.9,4.1-4.1,4.1h-153.6c-2.3,0-4.1-1.9-4.1-4.1v-52.5c0-2.3,1.9-4.1,4.1-4.1l0,0h153.6c2.3,0,4.1,1.8,4.1,4.1
				L1390.9,3693.4z M1390.9,3557.9c0,2.3-1.9,4.1-4.1,4.1h-153.6c-2.3,0-4.1-1.8-4.1-4.1l0,0v-52.5c0-2.3,1.9-4.1,4.1-4.1h153.6
				c2.3,0,4.2,1.8,4.2,4.1c0,0,0,0,0,0V3557.9z M1390.9,3422.3c0,2.3-1.9,4.1-4.1,4.1h-153.6c-2.3,0-4.1-1.8-4.1-4.1c0,0,0,0,0,0
				v-52.4c0-2.3,1.8-4.1,4.1-4.1c0,0,0,0,0,0h153.6c2.3,0,4.1,1.9,4.1,4.1L1390.9,3422.3z"/>
			<polygon class="st2" points="3320.3,3437.2 3253.8,3437 3254.1,3246 3113.4,3245.7 3113,3436.7 3045.1,3436.6 3044.7,3622.6 
				2964.2,3622.5 2964.7,3398.7 2919.5,3398.6 2919.7,3285.5 2892,3285.4 2891.8,3398.6 2730.9,3398.2 2729.4,4112.2 2606.2,4112 
				2606.4,4036.5 2530.9,4036.3 2530.7,4111.8 2407.5,4111.6 2408,3870.2 2186.8,3869.8 2187.1,3708.9 2091.6,3708.7 2091.3,3869.6 
				2086.2,3869.6 2085.6,4178.8 1985.1,4178.6 1985.5,3997.6 1864.8,3997.3 1864.4,4178.3 1763.8,4178.1 1765,3620.1 1690.6,3619.9 
				1688.9,4450.7 3320.3,4450.7 			"/>
		</g>
	</g>
	<line class="st3" x1="-32.8" y1="4452.2" x2="2962.2" y2="4452.2"/>
	<line class="st3" x1="3112.4" y1="4452.7" x2="3192.4" y2="4452.7"/>
	<line class="st4" x1="5577.1" y1="3312.7" x2="5511.7" y2="3312.7"/>
	<line class="st5" x1="3489.1" y1="3312.7" x2="3423.7" y2="3312.7"/>
	<line class="st6" x1="1835.8" y1="2211.4" x2="1918.3" y2="2211.4"/>
	<line class="st6" x1="956.9" y1="2118.6" x2="1480" y2="2118.6"/>
	<line class="st6" x1="1308" y1="2206.7" x2="1729.8" y2="2206.7"/>
	<line class="st6" x1="1602.5" y1="2118.6" x2="1819.3" y2="2118.6"/>
	<g class="st7">
		<path class="st8" d="M1618.2,3246.4H1487v-12.5h131.1v-50.2h-131.3v124h-32v366.3h224.3v-366.3h-61V3246.4z M1598.7,3614.3h-83.6
			v-83.6h83.6V3614.3z M1598.7,3420.2h-83.6v-83.6h83.6V3420.2z"/>
		<path class="st8" d="M1455,4093.1h224.2v-406.5H1455V4093.1z M1515.1,3724.9h83.6v83.6h-83.6V3724.9z M1515.1,3919h83.6v83.6
			h-83.6V3919z"/>
		<path class="st8" d="M1455.1,4454.8c3.6,0.7,7.2,1.5,10.8,2.1c4.9,0.9,9.8,1.8,14.7,2.5l2.9,0.4l5.9,0.8c4.8,0.7,9.8,1.2,14.7,1.7
			l7,0.6l5.6,0.4c3.1,0.2,6.2,0.5,9.2,0.5l5.7,0.2c1.6,0,3,0,4.5,0h5.6c2.5,0,5,0,7.6,0c1.1,0,2.1,0,3.2,0c2.6,0,5.1-0.1,7.6-0.2
			c1.8-0.1,3.5-0.2,5.3-0.2h1.5c1.4,0,2.9-0.2,4.3-0.2h1c3.3-0.2,6.6-0.4,9.8-0.8c3.2-0.3,6.5-0.6,9.8-1l6.7-0.8
			c27.3-3.8,54.2-9.5,80.7-17.1v-338h-224.3L1455.1,4454.8z M1515.1,4113.1h83.6v83.6h-83.6V4113.1z M1515.1,4307.3h83.6v83.6h-83.6
			V4307.3z"/>
		<path class="st8" d="M2893.8,4105.7c-0.5-1.9-1-3.7-1.6-5.6C2892.8,4102,2893.2,4103.9,2893.8,4105.7z"/>
		<rect x="1618.2" y="3233.9" class="st8" width="0.1" height="12.5"/>
	</g>
</g>
<g id="Layer_8">
	<g>
		<line class="st6" x1="4713.5" y1="2253.2" x2="4983.8" y2="2253.2"/>
		<line class="st6" x1="4667.9" y1="2173.2" x2="4843" y2="2173.2"/>
		<line class="st6" x1="5069.5" y1="2253.2" x2="5136.1" y2="2253.2"/>
	</g>
</g>
<g id="Layer_10">
	<g>
		<line class="st9" x1="2223.9" y1="2897" x2="2223.9" y2="2603.5"/>
		<path class="st10" d="M2191.6,2302.2l-114,65.8c-20.5,11.9-33.2,33.8-33.2,57.5v131.6c0,23.7,12.6,45.6,33.2,57.5l114,65.8
			c20.5,11.9,45.8,11.9,66.4,0l114-65.8c20.5-11.9,33.2-33.8,33.2-57.5v-131.6c0-23.7-12.6-45.6-33.2-57.5l-114-65.8
			C2237.4,2290.4,2212.1,2290.4,2191.6,2302.2z"/>
		<g>
			<g>
				<path class="st11" d="M2197.7,2454c-16.6,0-30.7,12.4-33,28.8c-0.3,2.2,1.2,4.2,3.4,4.5c0.2,0,0.4,0,0.5,0
					c1.9,0,3.6-1.4,3.9-3.4c1.7-12.5,12.5-21.9,25.1-21.9c2.2,0,4-1.8,4-4C2201.7,2455.7,2199.9,2454,2197.7,2454z"/>
			</g>
		</g>
		<path class="st12" d="M2147.7,2468.6c3.9-9.4,17.5-34,50.3-30.9c2.2,0.2,4.4-0.6,5.9-2.2c8.2-8.8,37.9-35.6,79.5-14.1
			c0,0,26,12.4,28,47.6c0.1,2,1.1,3.8,2.7,5.1c8.1,6.5,31.9,28.5,14.9,53.8c-8,11.9-21.6,18.9-36,18.9h-136.6
			c-11.9,0-23.4-4.2-32.1-12.2c-7.5-6.8-12.1-16.5-10.2-30.1c3.4-23.6,20.9-30,28.6-31.7C2144.9,2472.3,2146.8,2470.8,2147.7,2468.6
			z"/>
	</g>
</g>
<g id="Layer_9">
	<g>
		<line class="st9" x1="1260.6" y1="3314.1" x2="1260.6" y2="3020.5"/>
		<path class="st10" d="M1228.4,2719.2l-114,65.8c-20.5,11.9-33.2,33.8-33.2,57.5v131.6c0,23.7,12.6,45.6,33.2,57.5l114,65.8
			c20.5,11.9,45.8,11.9,66.4,0l114-65.8c20.5-11.9,33.2-33.8,33.2-57.5v-131.6c0-23.7-12.6-45.6-33.2-57.5l-114-65.8
			C1274.2,2707.4,1248.9,2707.4,1228.4,2719.2z"/>
		<g>
			<g>
				<path class="st11" d="M1235.6,2871.3c-16.6,0-30.7,12.4-33,28.8c-0.3,2.2,1.2,4.2,3.4,4.5c0.2,0,0.4,0,0.5,0
					c1.9,0,3.6-1.4,3.9-3.4c1.7-12.5,12.5-21.9,25.1-21.9c2.2,0,4-1.8,4-4C1239.6,2873,1237.8,2871.3,1235.6,2871.3z"/>
			</g>
		</g>
		<path class="st12" d="M1184.4,2885.6c3.9-9.4,17.5-34,50.3-30.9c2.2,0.2,4.4-0.6,5.9-2.2c8.2-8.8,37.9-35.6,79.5-14.1
			c0,0,26,12.4,28,47.6c0.1,2,1.1,3.8,2.7,5.1c8.1,6.5,31.9,28.5,14.9,53.8c-8,11.9-21.6,18.9-36,18.9h-136.6
			c-11.9,0-23.4-4.2-32.1-12.2c-7.5-6.8-12.1-16.5-10.2-30.1c3.4-23.6,20.9-30,28.6-31.7C1181.7,2889.3,1183.5,2887.8,1184.4,2885.6
			z"/>
	</g>
</g>
<g id="Layer_6">
	<g>
		<rect x="3331.6" y="4188.5" class="st13" width="1019.7" height="251.6"/>
		<rect x="3538.6" y="3707.6" class="st13" width="812.8" height="476"/>
		<rect x="4357.9" y="3316.7" class="st13" width="278.3" height="1123"/>
		<rect x="3331.7" y="3707.4" class="st13" width="201.7" height="475.3"/>
		<rect x="4406.4" y="3223.7" class="st13" width="187.9" height="88.7"/>
		<rect x="4406.4" y="2833.7" class="st13" width="188" height="130"/>
		<rect x="4407.4" y="2475" class="st13" width="187.1" height="172.7"/>
		
			<rect x="4349.2" y="2709.2" transform="matrix(2.767875e-04 -1 1 2.767875e-04 1696.2343 7176.77)" class="st13" width="176.7" height="61.7"/>
		
			<rect x="4409.2" y="2717.1" transform="matrix(2.767874e-04 -1 1 2.767874e-04 1756.2755 7236.8613)" class="st13" width="176.7" height="46"/>
		
			<rect x="4471.3" y="2706.8" transform="matrix(2.767875e-04 -1 1 2.767875e-04 1818.3479 7298.9854)" class="st13" width="176.7" height="66.6"/>
		<path class="st13" d="M4488.7,2044.7c1.5-10.4,16.5-10.4,18,0l15.7,106.1l23.1,156.6c0.8,5.5-3.5,10.4-9,10.4l-38.8,0l-38.8,0
			c-5.6,0-9.8-4.9-9-10.4l23.2-156.5L4488.7,2044.7z"/>
		<polygon class="st13" points="4358.1,3060.7 4401.4,2959.1 4401.3,3312.4 4358.1,3312.4 		"/>
		<polygon class="st13" points="4638.9,3060.8 4598.4,2959.1 4598.3,3312.5 4638.8,3312.5 		"/>
		<rect x="3492.4" y="3423.6" class="st13" width="859" height="279.9"/>
		<rect x="4641.4" y="3423.9" class="st13" width="866.3" height="279.9"/>
		<rect x="5511.7" y="3502.7" class="st13" width="65.3" height="201"/>
		<rect x="5511.7" y="3312.7" class="st13" width="65.3" height="186.4"/>
		<path class="st13" d="M3449.8,3147.1c1.2-7.6,12.1-7.6,13.3,0l9.6,60l16.2,101.7l-32.5,0l-32.5,0l16.3-101.6L3449.8,3147.1z"/>
		<rect x="3423.7" y="3502.7" class="st13" width="65.3" height="201"/>
		<rect x="3423.7" y="3312.7" class="st13" width="65.3" height="186.4"/>
		
			<rect x="4363.7" y="2365.7" transform="matrix(2.766902e-04 -1 1 2.766902e-04 2040.7279 6834.3647)" class="st13" width="149.7" height="61.7"/>
		
			<rect x="4423.7" y="2373.6" transform="matrix(2.766901e-04 -1 1 2.766901e-04 2100.7693 6894.4556)" class="st13" width="149.7" height="46"/>
		
			<rect x="4485.8" y="2363.3" transform="matrix(2.766902e-04 -1 1 2.766902e-04 2162.8416 6956.5796)" class="st13" width="149.7" height="66.6"/>
		<path class="st12" d="M3468.4,4240.7L3468.4,4240.7c-32.6,0-59,26.4-59,59v155.5l118-3v-152.5
			C3527.4,4267.1,3500.9,4240.7,3468.4,4240.7z"/>
		<path class="st12" d="M3657.9,4240.7L3657.9,4240.7c-32.6,0-59,26.4-59,59v155.5l118-3v-152.5
			C3716.9,4267.1,3690.4,4240.7,3657.9,4240.7z"/>
		<path class="st12" d="M3844.4,4240.7L3844.4,4240.7c-32.6,0-59,26.4-59,59v155.5l118-3v-152.5
			C3903.4,4267.1,3876.9,4240.7,3844.4,4240.7z"/>
		<path class="st12" d="M4033.9,4240.7L4033.9,4240.7c-32.6,0-59,26.4-59,59v155.5l118-3v-152.5
			C4092.9,4267.1,4066.4,4240.7,4033.9,4240.7z"/>
		<path class="st12" d="M4212.9,4240.7L4212.9,4240.7c-32.6,0-59,26.4-59,59v155.5l118-3v-152.5
			C4271.9,4267.1,4245.4,4240.7,4212.9,4240.7z"/>
		<rect x="4641.6" y="4188.5" class="st13" width="1054.2" height="251.6"/>
		<path class="st12" d="M4778.4,4240.7L4778.4,4240.7c-32.6,0-59,26.4-59,59v155.5l118-3v-152.5
			C4837.4,4267.1,4810.9,4240.7,4778.4,4240.7z"/>
		<path class="st12" d="M4967.9,4240.7L4967.9,4240.7c-32.6,0-59,26.4-59,59v155.5l118-3v-152.5
			C5026.9,4267.1,5000.4,4240.7,4967.9,4240.7z"/>
		<path class="st12" d="M5154.4,4240.7L5154.4,4240.7c-32.6,0-59,26.4-59,59v155.5l118-3v-152.5
			C5213.4,4267.1,5186.9,4240.7,5154.4,4240.7z"/>
		<path class="st12" d="M5343.9,4240.7L5343.9,4240.7c-32.6,0-59,26.4-59,59v155.5l118-3v-152.5
			C5402.9,4267.1,5376.4,4240.7,5343.9,4240.7z"/>
		<path class="st12" d="M5522.9,4240.7L5522.9,4240.7c-32.6,0-59,26.4-59,59v155.5l118-3v-152.5
			C5581.9,4267.1,5555.4,4240.7,5522.9,4240.7z"/>
		<line class="st3" x1="3312.4" y1="4451.7" x2="3572.4" y2="4451.7"/>
		<path class="st12" d="M4492.4,4114.2L4492.4,4114.2c-55.2,0-100,44.8-100,100v247h200v-247
			C4592.4,4159,4547.6,4114.2,4492.4,4114.2z"/>
		<line class="st4" x1="4427.4" y1="3967.1" x2="4427.4" y2="4024.1"/>
		<line class="st4" x1="4427.4" y1="3515.2" x2="4427.4" y2="3645.1"/>
		<line class="st4" x1="4268.4" y1="3979.2" x2="4268.4" y2="4109.1"/>
		<line class="st4" x1="4158.4" y1="3979.2" x2="4158.4" y2="4109.1"/>
		<line class="st4" x1="4046.4" y1="3979.2" x2="4046.4" y2="4109.1"/>
		<line class="st4" x1="3935.4" y1="3979.2" x2="3935.4" y2="4109.1"/>
		<line class="st4" x1="3823.4" y1="3984.2" x2="3823.4" y2="4114.1"/>
		<line class="st4" x1="3713.4" y1="3984.2" x2="3713.4" y2="4114.1"/>
		<line class="st4" x1="3601.4" y1="3984.2" x2="3601.4" y2="4114.1"/>
		<line class="st4" x1="4268.4" y1="3756.2" x2="4268.4" y2="3886.1"/>
		<line class="st4" x1="4158.4" y1="3756.2" x2="4158.4" y2="3886.1"/>
		<line class="st4" x1="4046.4" y1="3756.2" x2="4046.4" y2="3886.1"/>
		<line class="st4" x1="3935.4" y1="3756.2" x2="3935.4" y2="3886.1"/>
		<line class="st4" x1="3823.4" y1="3761.2" x2="3823.4" y2="3891.1"/>
		<line class="st4" x1="3713.4" y1="3761.2" x2="3713.4" y2="3891.1"/>
		<line class="st4" x1="3601.4" y1="3761.2" x2="3601.4" y2="3891.1"/>
		
			<rect x="4641.7" y="3708.6" transform="matrix(-1 2.790734e-04 -2.790734e-04 -1 10097.3057 7891.7842)" class="st13" width="812.8" height="476"/>
		
			<rect x="5459.7" y="3708.4" transform="matrix(-1 2.368281e-04 -2.368281e-04 -1 11156.5918 7890.8408)" class="st13" width="236.2" height="475.3"/>
		<line class="st4" x1="4724.7" y1="3980.2" x2="4724.7" y2="4110.1"/>
		<line class="st4" x1="4834.7" y1="3980.2" x2="4834.7" y2="4110.1"/>
		<line class="st4" x1="4946.7" y1="3980.2" x2="4946.7" y2="4110.1"/>
		<line class="st4" x1="5057.7" y1="3980.2" x2="5057.7" y2="4110.1"/>
		<line class="st4" x1="5169.7" y1="3985.2" x2="5169.7" y2="4115.1"/>
		<line class="st4" x1="5279.7" y1="3985.2" x2="5279.7" y2="4115.1"/>
		<line class="st4" x1="5391.7" y1="3985.2" x2="5391.7" y2="4115.1"/>
		<line class="st4" x1="4724.7" y1="3757.2" x2="4724.7" y2="3887.1"/>
		<line class="st4" x1="4834.7" y1="3757.2" x2="4834.7" y2="3887.1"/>
		<line class="st4" x1="4946.7" y1="3757.2" x2="4946.7" y2="3887.1"/>
		<line class="st4" x1="5057.7" y1="3757.2" x2="5057.7" y2="3887.1"/>
		<line class="st4" x1="5169.7" y1="3762.2" x2="5169.7" y2="3892.1"/>
		<line class="st4" x1="5279.7" y1="3762.2" x2="5279.7" y2="3892.1"/>
		<line class="st4" x1="5391.7" y1="3762.2" x2="5391.7" y2="3892.1"/>
		<line class="st4" x1="4428.9" y1="3690.2" x2="4427.4" y2="3889.1"/>
		<line class="st4" x1="4565.4" y1="3967.1" x2="4565.4" y2="4024.1"/>
		<line class="st4" x1="4565.4" y1="3515.2" x2="4565.4" y2="3645.1"/>
		<line class="st4" x1="4566.9" y1="3690.2" x2="4565.4" y2="3889.1"/>
		<line class="st12" x1="3331.9" y1="4182.2" x2="4350.9" y2="4182.2"/>
		<path class="st5" d="M4357.9,4439.2v-1127c0,0,17.9-0.4,44.8-0.9c78.9-1.4,191.5,1.1,239.2,0.9v1128"/>
		<polyline class="st12" points="4351.9,3703.2 3534.9,3703.2 3332.6,3703.2 		"/>
		<line class="st4" x1="3533.3" y1="4182.7" x2="3533.3" y2="3703.2"/>
		<line class="st4" x1="4641.9" y1="4184.2" x2="5696" y2="4184.2"/>
		<line class="st4" x1="5660.9" y1="3708.2" x2="4641.9" y2="3708.2"/>
		<line class="st4" x1="5459.7" y1="3708.5" x2="5459.7" y2="4183.7"/>
		<line class="st4" x1="5511.6" y1="3703.7" x2="5511.6" y2="3218.2"/>
		<polyline class="st4" points="5577,3703.7 5577,3505.8 5577,3158.2 		"/>
		<line class="st4" x1="5511.7" y1="3499.1" x2="5576.9" y2="3499.1"/>
		<line class="st5" x1="3489" y1="3703.7" x2="3489" y2="3205.2"/>
		<line class="st5" x1="3423.6" y1="3703.7" x2="3423.6" y2="3245.1"/>
		<line class="st5" x1="3489" y1="3499.1" x2="3423.7" y2="3499.1"/>
		<line class="st4" x1="4474.6" y1="2828.4" x2="4474.6" y2="2651.2"/>
		<line class="st3" x1="5721.2" y1="4452.7" x2="3664.4" y2="4452.7"/>
		
			<rect x="4312.3" y="3063" transform="matrix(2.767875e-04 -1 1 2.767875e-04 1342.3247 7529.4849)" class="st13" width="249.3" height="60.8"/>
		
			<rect x="4372.8" y="3070.4" transform="matrix(2.767874e-04 -1 1 2.767874e-04 1402.8165 7590.0269)" class="st13" width="249.3" height="46"/>
		
			<rect x="4435" y="3060.2" transform="matrix(2.767875e-04 -1 1 2.767875e-04 1464.9381 7652.1997)" class="st13" width="249.3" height="66.5"/>
		<path class="st13" d="M5537.8,3147.1c1.2-7.6,12.1-7.6,13.3,0l9.6,60l16.2,101.7l-32.5,0l-32.5,0l16.3-101.6L5537.8,3147.1z"/>
		<line class="st4" x1="4406.9" y1="2828.2" x2="4592.9" y2="2828.2"/>
		<line class="st4" x1="4406.9" y1="2647.2" x2="4592.9" y2="2647.2"/>
		<line class="st4" x1="4407.9" y1="2471.2" x2="4593.9" y2="2471.2"/>
		<polyline class="st14" points="4407.9,2321.2 4470.9,2321.2 4593.9,2321.2 		"/>
		<line class="st4" x1="4469.3" y1="2471.4" x2="4469.3" y2="2321.2"/>
		<line class="st4" x1="4521.5" y1="2471.4" x2="4521.5" y2="2321.7"/>
		<line class="st4" x1="4526.3" y1="2828.4" x2="4526.3" y2="2652.2"/>
		<polyline class="st5" points="4592.9,3304.6 4591.9,2963.2 4406.9,2963.2 4406.9,3221.2 4406.9,3311.2 		"/>
		<line class="st5" x1="4589.9" y1="3224.2" x2="4406.9" y2="3224.2"/>
		<line class="st5" x1="4467.4" y1="2968.8" x2="4467.4" y2="3218.2"/>
		<line class="st5" x1="4523.4" y1="2968.8" x2="4523.4" y2="3218.2"/>
		<line class="st5" x1="3426.3" y1="3311.3" x2="3489.1" y2="3311.3"/>
	</g>
</g>
<g id="Atomium">
	<g>
		<circle class="st15" cx="2578.8" cy="3375.9" r="184.9"/>
		
			<rect x="1902" y="3278.5" transform="matrix(0.9995 -3.194216e-02 3.194216e-02 0.9995 -110.3332 63.6484)" class="st15" width="70" height="413.2"/>
		
			<rect x="2209.3" y="2690.1" transform="matrix(0.5689 0.8224 -0.8224 0.5689 3375.1113 -584.2315)" class="st15" width="71" height="474.3"/>
		
			<rect x="2202.6" y="3120.1" transform="matrix(0.5698 -0.8218 0.8218 0.5698 -1796.0643 3283.5815)" class="st15" width="71" height="474.3"/>
		<rect x="2535.9" y="2866.7" class="st15" width="71" height="474.3"/>
		
			<rect x="3181.6" y="3291.8" transform="matrix(-0.9995 -3.194216e-02 3.194216e-02 -0.9995 6319.6948 7097.8169)" class="st15" width="70" height="413.2"/>
		
			<rect x="2869.1" y="2706.7" transform="matrix(-0.5689 0.8224 -0.8224 -0.5689 6978.0972 2229.8289)" class="st15" width="71" height="474.3"/>
		
			<rect x="2875.8" y="3129.9" transform="matrix(-0.5698 -0.8218 0.8218 -0.5698 1803.1041 7678.0518)" class="st15" width="71" height="474.3"/>
		
			<rect x="2255.7" y="3757.8" transform="matrix(0.6416 -0.7671 0.7671 0.6416 -2282.9004 3208.0647)" class="st15" width="71" height="577.9"/>
		
			<rect x="2236" y="3039.9" transform="matrix(0.4624 -0.8866 0.8866 0.4624 -1684.5812 3775.6338)" class="st15" width="71" height="474.3"/>
		
			<rect x="2845.8" y="3043.3" transform="matrix(-0.4624 -0.8866 0.8866 -0.4624 1305.1273 7352.1226)" class="st15" width="71" height="474.3"/>
		
			<rect x="2242.9" y="3255.7" transform="matrix(-0.5853 -0.8108 0.8108 -0.5853 746.6337 7449.4565)" class="st15" width="71" height="556.1"/>
		
			<rect x="2881.2" y="3279.5" transform="matrix(0.5853 -0.8108 0.8108 0.5853 -1675.0194 3840.3445)" class="st15" width="71" height="556.1"/>
		
			<rect x="2262.6" y="3414.2" transform="matrix(-0.4004 -0.9163 0.9163 -0.4004 -127.3822 7219.2964)" class="st15" width="71" height="474.3"/>
		
			<rect x="2861.5" y="3438" transform="matrix(0.4004 -0.9163 0.9163 0.4004 -1630.7223 4858.02)" class="st15" width="71" height="474.3"/>
		<circle class="st15" cx="2580.1" cy="3496.8" r="184.9"/>
		
			<rect x="2835.1" y="3756" transform="matrix(-0.6416 -0.7671 0.7671 -0.6416 1598.5688 8865.4414)" class="st15" width="71" height="606.4"/>
		<polygon class="st15" points="2611.7,3598.4 2548.4,3598.4 2458.4,4451.7 2701.7,4451.7 		"/>
		<polygon class="st15" points="1878.6,3915 1655.4,4450.8 1852,4450.8 1975.3,3924.9 		"/>
		<polygon class="st15" points="3268.2,3918.3 3491.5,4451.7 3294.9,4451.7 3171.6,3928.2 		"/>
		<circle class="st15" cx="1906.9" cy="3140.2" r="184.9"/>
		<circle class="st15" cx="2573.4" cy="2720.3" r="184.9"/>
		<circle class="st15" cx="1980.3" cy="3773.3" r="184.9"/>
		<circle class="st15" cx="3243.2" cy="3140.2" r="184.9"/>
		<circle class="st15" cx="3169.9" cy="3773.3" r="184.9"/>
		<circle class="st15" cx="2580.1" cy="3626.7" r="184.9"/>
	</g>
</g>
<g id="Layer_12">
	<g>
		<line class="st9" x1="3921" y1="3423.6" x2="3921" y2="2801.5"/>
		<path class="st10" d="M3888.8,2500.2l-114,65.8c-20.5,11.9-33.2,33.8-33.2,57.5v131.6c0,23.7,12.6,45.6,33.2,57.5l114,65.8
			c20.5,11.9,45.8,11.9,66.4,0l114-65.8c20.5-11.9,33.2-33.8,33.2-57.5v-131.6c0-23.7-12.6-45.6-33.2-57.5l-114-65.8
			C3934.6,2488.3,3909.3,2488.3,3888.8,2500.2z"/>
		<g>
			<g>
				<path class="st11" d="M3897.5,2652.1c-16.6,0-30.7,12.4-33,28.8c-0.3,2.2,1.2,4.2,3.4,4.5c0.2,0,0.4,0,0.5,0
					c1.9,0,3.6-1.4,3.9-3.4c1.7-12.5,12.5-21.9,25.1-21.9c2.2,0,4-1.8,4-4C3901.5,2653.9,3899.7,2652.1,3897.5,2652.1z"/>
			</g>
		</g>
		<path class="st12" d="M3844.8,2666.6c3.9-9.4,17.5-34,50.3-30.9c2.2,0.2,4.4-0.6,5.9-2.2c8.2-8.8,37.9-35.6,79.5-14.1
			c0,0,26,12.4,28,47.6c0.1,2,1.1,3.8,2.7,5.1c8.1,6.5,31.9,28.5,14.9,53.8c-8,11.9-21.6,18.9-36,18.9h-136.6
			c-11.9,0-23.4-4.2-32.1-12.2c-7.5-6.8-12.1-16.5-10.2-30.1c3.4-23.6,20.9-30,28.6-31.7C3842.1,2670.3,3843.9,2668.8,3844.8,2666.6
			z"/>
	</g>
</g>
<g id="Layer_13">
	<g>
		<line class="st9" x1="5212.5" y1="3424.2" x2="5212.5" y2="3037.4"/>
		<path class="st10" d="M5180.2,2736l-114,65.8c-20.5,11.9-33.2,33.8-33.2,57.5V2991c0,23.7,12.6,45.6,33.2,57.5l114,65.8
			c20.5,11.9,45.8,11.9,66.4,0l114-65.8c20.5-11.9,33.2-33.8,33.2-57.5v-131.6c0-23.7-12.6-45.6-33.2-57.5l-114-65.8
			C5226,2724.2,5200.7,2724.2,5180.2,2736z"/>
		<g>
			<g>
				<path class="st11" d="M5188.9,2888c-16.6,0-30.7,12.4-33,28.8c-0.3,2.2,1.2,4.2,3.4,4.5c0.2,0,0.4,0,0.5,0
					c1.9,0,3.6-1.4,3.9-3.4c1.7-12.5,12.5-21.9,25.1-21.9c2.2,0,4-1.8,4-4C5192.9,2889.7,5191.1,2888,5188.9,2888z"/>
			</g>
		</g>
		<path class="st12" d="M5136.3,2902.5c3.9-9.4,17.5-34,50.3-30.9c2.2,0.2,4.4-0.6,5.9-2.2c8.2-8.8,37.9-35.6,79.5-14.1
			c0,0,26,12.4,28,47.6c0.1,2,1.1,3.8,2.7,5.1c8.1,6.5,31.9,28.5,14.9,53.8c-8,11.9-21.6,18.9-36,18.9h-136.6
			c-11.9,0-23.4-4.2-32.1-12.2c-7.5-6.8-12.1-16.5-10.2-30.1c3.4-23.6,20.9-30,28.6-31.7C5133.5,2906.1,5135.4,2904.6,5136.3,2902.5
			z"/>
	</g>
</g>
</svg>
