<svg id="ba39b2b3-a213-42cf-a7d1-6a3d5ab41e0e" data-name="Irceline" xmlns="http://www.w3.org/2000/svg" viewBox="0 0 355.21 355.21"><defs><style>.b244f572-6d5f-4e62-9951-8f61c549b104{fill:#fdfefe;}.f13a9838-5e53-452c-a9a6-8c57c206e776{fill:#30aee2;}.b7411498-0a4c-49ac-b936-5a23be2e2198{fill:#0c0c0c;}</style></defs><title>irceline</title><g id="be41efe4-c024-4171-8bcf-f26a51bdaa79" data-name="Irceline"><path class="b244f572-6d5f-4e62-9951-8f61c549b104" d="M178.43,356q-86.75,0-173.5.11c-3.56,0-4-.89-4-4.18q.16-173.49,0-347c0-3.55.88-4,4.17-4q173.49.16,347,0c3.55,0,4,.88,4,4.17q-.16,173.49,0,347c0,3.55-.88,4-4.17,4Q265.19,355.91,178.43,356ZM335,235.54c-1.36,2.77-2.64,5.58-4.09,8.29C319.35,265.48,295.51,270.75,276,256c-3.06-2.3-6.13-4.6-9.31-6.72-4.14-2.76-6.09-2.08-7.81,2.67-1.18,3.28-2.09,6.64-3.83,9.72-8.25,14.62-22.29,16.68-34,4.95-2.7-2.71-5.34-5.49-8.14-8.1-5-4.6-7.52-4.18-10.76,1.55-9.45,16.69-26.52,21.1-42.52,10.8a43.2,43.2,0,0,1-18.68-25.06c-.73-2.56-1-5.26-4.5-5.79-3.67-.55-4.3,2.28-5.6,4.53C115.48,271,80,272.9,61.88,248.25c-4.32-5.88-6-12.11-3.53-19.22a64.78,64.78,0,0,0,1.84-6.72c1-4.07-.52-5.93-4.64-6-3.15-.05-6.36.21-9.46-.27-9.12-1.43-17.36-4.84-20.56-14.35C22.24,191.9,25,183,31.84,175.4c3-3.38,6.77-5,11.29-5.7,5.21-.81,10.27-.3,15.4.2,2.74.26,5.57.22,6.94-2.68,1.26-2.68-1-4.36-2.56-6-3.81-4.07-7-8.54-8.56-13.9-3.81-13.46-1.87-24.1,8.38-30.66a27.32,27.32,0,0,1,20-4.17c12.49,2.21,23,8.47,32.51,16.54,2.32,2,4.79,4.33,7.95,2.49,2.82-1.64,1.64-4.77,1.34-7.33a52.38,52.38,0,0,1,.29-15.41c1.26-7,4.75-12,11.72-14.14,6.74-2.12,10.57,2.27,14.45,6.46,3.42,3.69,5.8,8.11,8.37,12.38,1,1.66,2.45,2.81,4.53,2.46s2.65-2.15,3-4c.5-2.61,1.09-5.21,1.84-7.76C176,79.66,206.41,72,224.69,90.09c7,7,10.2,15.8,12.39,25.16.57,2.45.16,5.61,3.47,6.58s5.26-1.19,7.22-3.32a41.11,41.11,0,0,1,10.49-8.4c9.84-5.37,18.68-1.79,21.81,9,2.19,7.56,1.1,15.19-.26,22.76-.49,2.73-2.25,6.26.2,7.93,3,2,5.25-1.61,7.64-3.17,8.44-5.49,17.19-10.3,27.54-10.7,8-.32,12.46,3.5,13.81,11.38.57,3.37.83,6.8,1.27,10.58,4.53-15.6-2.24-27.73-18.47-26.4a55.64,55.64,0,0,0-19.57,5.57c-1.34.64-2.57,2.16-4.59,1.2.37-5.81,1-11.57.35-17.4-1.94-17-17.25-25.41-32.53-17.84a33.69,33.69,0,0,0-7.78,5.37c-2.87,2.64-4.27,2.76-5.41-1.5-5.35-20-18-31.28-39-33.55-18.2-2-32.23,5.54-39.06,22.42-.83,2.07-1.63,4.14-2.65,6.74-3.44-3.74-5.49-7.61-8.74-10.49-6.85-6.09-14.48-7.13-22.56-3-8.54,4.4-12.25,11.82-13.09,21-.3,3.2-.35,6.41-.54,10.17l-8.72-5.36c-10.23-6.26-20.87-10.76-33.33-10-16.9,1-29.63,14.2-29.49,31.07.08,9.45,3.65,17.75,8.75,25.62-3,1-5.54-.63-8.18-.38-25.26,2.41-33.5,29.58-26.55,44.88,5.44,12,16,16.4,28.08,17.75,3.72.41,4.39,1.45,3.49,4.92a25.5,25.5,0,0,0,1.49,18c8.79,18.4,32.35,30,52.29,25.75,11.44-2.41,20.44-8.58,28-17.14,2-2.27,2.87-2.37,4.37.52a55.42,55.42,0,0,0,22.39,22.89c14.84,8.42,30.56,6.43,42.24-5,2.7-2.65,4.15-8.36,7.75-7.71,3.24.59,5.73,5.2,8.57,8,9.67,9.59,20.59,10.72,32.17,3.62,7.79-4.79,12.08-12.11,15.24-20.33,21.39,12.82,29.58,15,42.84,11.55C321.77,265.23,335.17,249.34,335,235.54ZM167.61,204.16c-1.83,1.08-3.49,2.12-5.21,3.07-13.84,7.71-29.81,1.74-34.37-13a40.1,40.1,0,0,1-.63-20.74c4.06-18.12,22.84-24.62,37.6-13.21.71.56,1.24,1.7,1.64,1.48,4.67-6.12.5-7.24-3.65-8.42a44.22,44.22,0,0,0-14.83-1.45c-11.26.67-20.93,4.47-26.27,15.14-5.61,11.2-5.24,22.52,1.22,33.32,9.24,15.42,31.51,14.67,42.57,9.47C168.23,208.65,168.19,206.7,167.61,204.16Zm13.27-17.66a191.73,191.73,0,0,1-.66,21.44c-.19,1.91-.73,4.14,2.58,4.11,8.49-.08,17,0,25.48,0,1.41,0,2.65-.14,2.72-2.05.08-2.47-1.6-2-3.06-2-5.32.15-10.64.24-16,.51-2.83.15-4.28-.51-4.16-3.79.22-6.15.17-12.32,0-18.48-.07-2.68.93-3.49,3.48-3.38,4.66.21,9.32.27,14,.23,1.3,0,3.45,1.48,3.5-1.75s-2-2.43-3.68-2.41c-4.66,0-9.32.07-14,.24-2.25.08-3.36-.54-3.29-3.05q.24-8,.07-16c0-2.68,1.12-3.43,3.6-3.27,5.15.34,10.3.54,15.45.72,1.54.05,3.74,1.55,3.83-1.94.08-3-1.69-2.65-3.53-2.65-7.82,0-15.65.15-23.47-.07-3.35-.1-3.95,1.32-3.62,4.16C181.31,166.85,180.78,176.69,180.88,186.5Zm42.88-3.77h0c0,8.66.12,17.32-.07,26-.06,2.28.12,3.39,2.74,3.35,8.49-.1,17,0,25.49,0,1.55,0,3.09.07,3-2.24s-1.89-1.86-3.29-1.83c-5.15.14-10.32.16-15.46.57-3.9.31-5.14-1-5.07-5,.28-15.65-.61-31.32.61-46.95.34-4.36-2.26-3.29-4.58-3.49-2.86-.26-3.52.67-3.41,3.66C224,165.41,223.76,174.08,223.76,182.73Zm104,28.71c-9.71-1.33-12.67-3.42-13.61-8.92-.38-2.2-.36-3.67,2.76-3.67,3.46,0,6.89-.31,10.39,0,1.92.16,4.81,1.39,5.83-1,.94-2.2.19-4.9-1.1-7.14a10.23,10.23,0,0,0-5.16-4.51c-6.09-2.37-13.2.15-15.91,5.54-3.26,6.49-1.56,15.62,3.84,18.85C318.54,212.84,322.61,214.17,327.79,211.44Zm-227.33-47.1c-.76-1.26.09-3.85-2.84-3.36S96,163.42,96,164.78c-.1,6.65,0,13.29-.09,19.94,0,1.58.13,2.39,2.07,2.4s2.07-.9,2-2.43c-.08-4.32-.18-8.65,0-13,.17-4,1.79-7.3,6.5-6.93,2.21.18,2.53-.38,2.47-2.27-.09-2.39-1.52-2.07-3.1-1.84C103.58,161,102.73,163.48,100.46,164.34ZM287,189.05c9.18-1.8,11.9.43,12,8.88,0,3.82-.05,7.65-.33,11.45-.13,1.87.11,2.79,2.22,2.81,1.86,0,2.16-.85,2.15-2.43,0-5.48.12-11,0-16.46-.08-3.45-1.85-6.19-5.15-7.16C294.17,185.06,290.37,184.8,287,189.05Zm-15.91,1.25c-.47-1.83,1.12-4.75-2.89-4.29s-1.49,3.15-1.46,4.49a169.51,169.51,0,0,1-.19,18.45c-.12,1.46-1,3.29,1.94,3.28,2.51,0,2.64-1.22,2.51-3.1C270.55,202.84,270.05,196.54,271.06,190.3ZM85.94,166.21c.15-5.14.14-5.17-2.42-5.17-4.38,0-1.72,3.12-1.73,4.59,0,6,.21,12-.16,18-.07,1.13-1.83,3.28,1.47,3.56s3-1.68,2.84-3.67C85.5,177.5,85.12,171.55,85.94,166.21Zm195,33c0,3.31,0,6.62,0,9.93,0,1.39-.52,2.93,2,3,2.71.1,2.22-1.48,2.24-3.13.07-5.26-1.07-10.65.67-15.73a6,6,0,0,0-.59-5.94c-.84-1.37-1.6-1.27-2.65-1.36-1.81-.16-1.65,1.12-1.65,2.29C281,192,281,195.61,281,199.25Zm-12-25.43c-1.44,0-2.61.49-2.86,2a2.49,2.49,0,0,0,2.51,3,2.26,2.26,0,0,0,2.5-2.42C271.16,174.93,270.71,173.83,269,173.82Zm-185-19.93c1.33-.51,2.23-1.2,2.21-2.82a2.07,2.07,0,0,0-2.44-2.3c-1.62.08-2.88.95-2.54,2.82C81.38,153,82.53,153.66,83.9,153.89Z" transform="translate(-0.9 -0.9)"/><path class="f13a9838-5e53-452c-a9a6-8c57c206e776" d="M335,235.54c.18,13.8-13.22,29.69-27,33.29-13.26,3.46-21.45,1.27-42.84-11.55-3.16,8.22-7.45,15.54-15.24,20.33-11.58,7.1-22.5,6-32.17-3.62-2.84-2.82-5.33-7.43-8.57-8-3.6-.65-5,5.06-7.75,7.71-11.68,11.44-27.4,13.43-42.24,5a55.42,55.42,0,0,1-22.39-22.89c-1.5-2.89-2.37-2.79-4.37-.52-7.55,8.56-16.55,14.73-28,17.14-19.94,4.2-43.5-7.35-52.29-25.75a25.5,25.5,0,0,1-1.49-18c.9-3.47.23-4.51-3.49-4.92C35,222.43,24.51,218,19.07,206c-7-15.3,1.29-42.47,26.55-44.88,2.64-.25,5.14,1.4,8.18.38-5.1-7.87-8.67-16.17-8.75-25.62-.14-16.87,12.59-30,29.49-31.07,12.46-.77,23.1,3.73,33.33,10l8.72,5.36c.19-3.76.24-7,.54-10.17.84-9.17,4.55-16.59,13.09-21,8.08-4.15,15.71-3.11,22.56,3,3.25,2.88,5.3,6.75,8.74,10.49,1-2.6,1.82-4.67,2.65-6.74C171,78.88,185,71.38,203.23,73.34c21.06,2.27,33.69,13.54,39,33.55,1.14,4.26,2.54,4.14,5.41,1.5a33.69,33.69,0,0,1,7.78-5.37c15.28-7.57,30.59.86,32.53,17.84.66,5.83,0,11.59-.35,17.4,2,1,3.25-.56,4.59-1.2a55.64,55.64,0,0,1,19.57-5.57c16.23-1.33,23,10.8,18.47,26.4-.44-3.78-.7-7.21-1.27-10.58-1.35-7.88-5.82-11.7-13.81-11.38-10.35.4-19.1,5.21-27.54,10.7-2.39,1.56-4.68,5.19-7.64,3.17-2.45-1.67-.69-5.2-.2-7.93,1.36-7.57,2.45-15.2.26-22.76-3.13-10.79-12-14.37-21.81-9a41.11,41.11,0,0,0-10.49,8.4c-2,2.13-3.92,4.3-7.22,3.32s-2.9-4.13-3.47-6.58c-2.19-9.36-5.37-18.2-12.39-25.16C206.41,72,176,79.66,168.77,104.16c-.75,2.55-1.34,5.15-1.84,7.76-.37,1.89-.8,3.67-3,4s-3.53-.8-4.53-2.46c-2.57-4.27-4.95-8.69-8.37-12.38-3.88-4.19-7.71-8.58-14.45-6.46-7,2.19-10.46,7.16-11.72,14.14a52.38,52.38,0,0,0-.29,15.41c.3,2.56,1.48,5.69-1.34,7.33-3.16,1.84-5.63-.53-7.95-2.49-9.54-8.07-20-14.33-32.51-16.54a27.32,27.32,0,0,0-20,4.17c-10.25,6.56-12.19,17.2-8.38,30.66,1.52,5.36,4.75,9.83,8.56,13.9,1.52,1.62,3.82,3.3,2.56,6-1.37,2.9-4.2,2.94-6.94,2.68-5.13-.5-10.19-1-15.4-.2-4.52.71-8.25,2.32-11.29,5.7-6.86,7.64-9.6,16.5-6.31,26.29C28.73,211.2,37,214.61,46.09,216c3.1.48,6.31.22,9.46.27,4.12.07,5.6,1.93,4.64,6A64.78,64.78,0,0,1,58.35,229c-2.51,7.11-.79,13.34,3.53,19.22,18.13,24.65,53.6,22.79,69-3.67,1.3-2.25,1.93-5.08,5.6-4.53,3.47.53,3.77,3.23,4.5,5.79a43.2,43.2,0,0,0,18.68,25.06c16,10.3,33.07,5.89,42.52-10.8,3.24-5.73,5.81-6.15,10.76-1.55,2.8,2.61,5.44,5.39,8.14,8.1,11.71,11.73,25.75,9.67,34-4.95,1.74-3.08,2.65-6.44,3.83-9.72,1.72-4.75,3.67-5.43,7.81-2.67,3.18,2.12,6.25,4.42,9.31,6.72,19.52,14.72,43.36,9.45,54.91-12.2C332.35,241.12,333.63,238.31,335,235.54Z" transform="translate(-0.9 -0.9)"/><path class="f13a9838-5e53-452c-a9a6-8c57c206e776" d="M167.61,204.16c.58,2.54.62,4.49-1.93,5.69-11.06,5.2-33.33,6-42.57-9.47-6.46-10.8-6.83-22.12-1.22-33.32,5.34-10.67,15-14.47,26.27-15.14A44.22,44.22,0,0,1,163,153.37c4.15,1.18,8.32,2.3,3.65,8.42-.4.22-.93-.92-1.64-1.48-14.76-11.41-33.54-4.91-37.6,13.21a40.1,40.1,0,0,0,.63,20.74c4.56,14.71,20.53,20.68,34.37,13C164.12,206.28,165.78,205.24,167.61,204.16Z" transform="translate(-0.9 -0.9)"/><path class="f13a9838-5e53-452c-a9a6-8c57c206e776" d="M180.88,186.5c-.1-9.81.43-19.65-.71-29.43-.33-2.84.27-4.26,3.62-4.16,7.82.22,15.65.07,23.47.07,1.84,0,3.61-.34,3.53,2.65-.09,3.49-2.29,2-3.83,1.94-5.15-.18-10.3-.38-15.45-.72-2.48-.16-3.65.59-3.6,3.27q.17,8-.07,16c-.07,2.51,1,3.13,3.29,3.05,4.66-.17,9.32-.2,14-.24,1.71,0,3.73-.69,3.68,2.41s-2.2,1.73-3.5,1.75c-4.66,0-9.32,0-14-.23-2.55-.11-3.55.7-3.48,3.38.16,6.16.21,12.33,0,18.48-.12,3.28,1.33,3.94,4.16,3.79,5.32-.27,10.64-.36,16-.51,1.46,0,3.14-.48,3.06,2-.07,1.91-1.31,2.05-2.72,2.05-8.49,0-17-.05-25.48,0-3.31,0-2.77-2.2-2.58-4.11A191.73,191.73,0,0,0,180.88,186.5Z" transform="translate(-0.9 -0.9)"/><path class="f13a9838-5e53-452c-a9a6-8c57c206e776" d="M223.76,182.73c0-8.65.21-17.32-.12-26-.11-3,.55-3.92,3.41-3.66,2.32.2,4.92-.87,4.58,3.49-1.22,15.63-.33,31.3-.61,46.95-.07,4,1.17,5.29,5.07,5,5.14-.41,10.31-.43,15.46-.57,1.4,0,3.15-.59,3.29,1.83s-1.41,2.24-3,2.24c-8.5,0-17-.06-25.49,0-2.62,0-2.8-1.07-2.74-3.35.19-8.66.07-17.32.07-26Z" transform="translate(-0.9 -0.9)"/><path class="b7411498-0a4c-49ac-b936-5a23be2e2198" d="M327.79,211.44c-5.18,2.73-9.25,1.4-13-.83-5.4-3.23-7.1-12.36-3.84-18.85,2.71-5.39,9.82-7.91,15.91-5.54a10.23,10.23,0,0,1,5.16,4.51c1.29,2.24,2,4.94,1.1,7.14-1,2.37-3.91,1.14-5.83,1-3.5-.31-6.93,0-10.39,0-3.12,0-3.14,1.47-2.76,3.67C315.12,208,318.08,210.11,327.79,211.44Zm-6-14.48h3c4.71,0,5.26-.83,3.42-5.14a11.07,11.07,0,0,0-1.5-2.49c-1.91-2.36-4.21-3-7-1.53-3.24,1.73-5.41,4.76-4.88,8,.45,2.7,4,.54,6,1.16A3.33,3.33,0,0,0,321.75,197Z" transform="translate(-0.9 -0.9)"/><path class="b7411498-0a4c-49ac-b936-5a23be2e2198" d="M100.46,164.34c2.27-.86,3.12-3.31,5.43-3.65,1.58-.23,3-.55,3.1,1.84.06,1.89-.26,2.45-2.47,2.27-4.71-.37-6.33,2.89-6.5,6.93-.19,4.31-.09,8.64,0,13,0,1.53-.06,2.43-2,2.43s-2.09-.82-2.07-2.4c.08-6.65,0-13.29.09-19.94,0-1.36-1.25-3.32,1.63-3.8S99.7,163.08,100.46,164.34Z" transform="translate(-0.9 -0.9)"/><path class="b7411498-0a4c-49ac-b936-5a23be2e2198" d="M287,189.05c3.4-4.25,7.2-4,10.86-2.91,3.3,1,5.07,3.71,5.15,7.16.12,5.49,0,11,0,16.46,0,1.58-.29,2.44-2.15,2.43-2.11,0-2.35-.94-2.22-2.81.28-3.8.35-7.63.33-11.45C298.87,189.48,296.15,187.25,287,189.05Z" transform="translate(-0.9 -0.9)"/><path class="b7411498-0a4c-49ac-b936-5a23be2e2198" d="M271.06,190.3c-1,6.24-.51,12.54-.09,18.83.13,1.88,0,3.09-2.51,3.1-3,0-2.06-1.82-1.94-3.28a169.51,169.51,0,0,0,.19-18.45c0-1.34-2.43-4.05,1.46-4.49S270.59,188.47,271.06,190.3Z" transform="translate(-0.9 -0.9)"/><path class="b7411498-0a4c-49ac-b936-5a23be2e2198" d="M85.94,166.21c-.82,5.34-.44,11.29,0,17.26.15,2,.47,3.95-2.84,3.67s-1.54-2.43-1.47-3.56c.37-6,.12-12,.16-18,0-1.47-2.65-4.58,1.73-4.59C86.08,161,86.09,161.07,85.94,166.21Z" transform="translate(-0.9 -0.9)"/><path class="b7411498-0a4c-49ac-b936-5a23be2e2198" d="M281,199.25c0-3.64,0-7.28,0-10.91,0-1.17-.16-2.45,1.65-2.29,1,.09,1.81,0,2.65,1.36a6,6,0,0,1,.59,5.94c-1.74,5.08-.6,10.47-.67,15.73,0,1.65.47,3.23-2.24,3.13-2.48-.1-2-1.64-2-3C281,205.87,281,202.56,281,199.25Z" transform="translate(-0.9 -0.9)"/><path class="b7411498-0a4c-49ac-b936-5a23be2e2198" d="M269,173.82c1.76,0,2.21,1.11,2.15,2.59a2.26,2.26,0,0,1-2.5,2.42,2.49,2.49,0,0,1-2.51-3C266.34,174.31,267.51,173.77,269,173.82Z" transform="translate(-0.9 -0.9)"/><path class="b7411498-0a4c-49ac-b936-5a23be2e2198" d="M83.9,153.89c-1.37-.23-2.52-.87-2.77-2.3-.34-1.87.92-2.74,2.54-2.82a2.07,2.07,0,0,1,2.44,2.3C86.13,152.69,85.23,153.38,83.9,153.89Z" transform="translate(-0.9 -0.9)"/><path class="b244f572-6d5f-4e62-9951-8f61c549b104" d="M321.75,197a3.33,3.33,0,0,1-1,0c-2-.62-5.55,1.54-6-1.16-.53-3.23,1.64-6.26,4.88-8,2.82-1.5,5.12-.83,7,1.53a11.07,11.07,0,0,1,1.5,2.49c1.84,4.31,1.29,5.1-3.42,5.14Z" transform="translate(-0.9 -0.9)"/></g></svg>