<?xml version="1.0" encoding="utf-8"?>
<!-- Generator: Adobe Illustrator 23.0.1, SVG Export Plug-In . SVG Version: 6.00 Build 0)  -->
<svg version="1.1" id="Layer_1" xmlns="http://www.w3.org/2000/svg" xmlns:xlink="http://www.w3.org/1999/xlink" x="0px" y="0px"
	 viewBox="0 0 500 500" style="enable-background:new 0 0 500 500;" xml:space="preserve">
<style type="text/css">
	.st0{fill:#0E8A78;}
	.st1{font-family:'FuturaPT-Medium';}
	.st2{font-size:27.3246px;}
</style>
<text transform="matrix(0.867 -0.4983 0.4983 0.867 63.5229 320.3342)" class="st0 st1 st2">Influenc</text>
<g>
	<g>
		<path class="st0" d="M166.08,325.09c-12.83-30.19-40.42-38.13-62.61-12.95c-32.93-6.25-50.32,27.11-32.69,46.12
			c-3.83,10.92,1,23.97,12.35,28.77c-3.01-2.51-4.79-6.34-4.79-10.99c0-10.38,8.61-15.79,28.51-17.93
			c-0.16-5.21-2.25-9.56-8.81-9.56c-4.82,0-9.36,2.17-13.62,4.78l-4.19-7.58c5.33-3.36,12.2-6.36,19.9-6.36
			c12.12,0,18.09,7.46,18.09,20.97v28.71h-9.32l-0.87-5.37h-0.32c-1.65,1.41-3.39,2.69-5.23,3.74c0.11-0.03,0.22-0.05,0.33-0.09
			c20.12,20.04,46.07,16.62,60.87,1.71h-5.93v-48.49h9.32l0.87,8.65h0.32c3.46-6.32,8.59-9.83,13.78-9.83
			c2.47,0,4.03,0.32,5.49,0.99l-1.97,9.87c-1.7-0.47-2.96-0.79-4.98-0.79c-3.87,0-8.53,2.65-11.45,10.03v22.79
			c0.02-0.03,0.05-0.06,0.07-0.1C205.84,375.6,197.4,326.59,166.08,325.09z M143.26,389.06h-11.37v-48.49h11.37V389.06z
			 M137.61,332.08c-4.03,0-7.03-2.69-7.03-6.44c0-3.83,3-6.44,7.03-6.44c4.03,0,7.03,2.61,7.03,6.44
			C144.64,329.39,141.64,332.08,137.61,332.08z"/>
	</g>
	<g>
		<path class="st0" d="M106.85,365.17c-13.15,1.66-17.53,5.09-17.53,9.99c0,4.28,2.92,6.16,6.99,6.16c3.95,0,6.95-1.93,10.54-5.25
			V365.17z"/>
	</g>
	<g>
		<path class="st0" d="M207.08,293.94l-69.72-40.25c-5.52-3.19-12.33-3.19-17.85,0l-69.72,40.25c-5.52,3.19-8.92,9.08-8.92,15.46
			v80.5c0,6.38,3.4,12.27,8.92,15.46l69.72,40.25c5.52,3.19,12.33,3.19,17.85,0l69.72-40.25c5.52-3.19,8.92-9.08,8.92-15.46v-80.5
			C216,303.02,212.6,297.13,207.08,293.94z M209.93,390.12c0,4.08-2.17,7.84-5.7,9.88l-70.09,40.47c-3.53,2.04-7.88,2.04-11.41,0
			L52.64,400c-3.53-2.04-5.7-5.8-5.7-9.88v-80.93c0-4.08,2.17-7.84,5.7-9.88l70.09-40.47c3.53-2.04,7.88-2.04,11.41,0l70.09,40.47
			c3.53,2.04,5.7,5.8,5.7,9.88V390.12z"/>
	</g>
</g>
</svg>
