<svg id="Layer_1" data-name="Layer 1" xmlns="http://www.w3.org/2000/svg" viewBox="0 0 175.13 196.7"><defs><style>.cls-1{isolation:isolate;font-size:27.32px;font-family:FuturaPT-Medium, Futura PT;font-weight:500;}.cls-1,.cls-2{fill:#0e8a78;}</style></defs><title>Logo Influencair2</title><text class="cls-1" transform="translate(22.65 69.04) rotate(-29.89)">Influenc</text><path class="cls-2" d="M136.08,86.09C123.25,55.9,95.66,48,73.47,73.14c-32.93-6.25-50.32,27.11-32.69,46.12-3.83,10.92,1,24,12.35,28.77a13.91,13.91,0,0,1-4.79-11c0-10.38,8.61-15.79,28.51-17.93-.16-5.21-2.25-9.56-8.81-9.56-4.82,0-9.36,2.17-13.62,4.78l-4.19-7.58c5.33-3.36,12.2-6.36,19.9-6.36,12.12,0,18.09,7.46,18.09,21v28.71H78.9L78,144.7h-.32a34.24,34.24,0,0,1-5.23,3.74l.33-.09c20.12,20,46.07,16.62,60.87,1.71h-5.93V101.57h9.32l.87,8.65h.32c3.46-6.32,8.59-9.83,13.78-9.83a12.36,12.36,0,0,1,5.49,1l-2,9.87a16.55,16.55,0,0,0-5-.79c-3.87,0-8.53,2.65-11.45,10v22.79a.86.86,0,0,0,.07-.1C175.84,136.6,167.4,87.59,136.08,86.09Zm-22.82,64H101.89V101.57h11.37Zm-5.65-57c-4,0-7-2.69-7-6.44s3-6.44,7-6.44,7,2.61,7,6.44S111.64,93.08,107.61,93.08Z" transform="translate(-10.87 -12.3)"/><path class="cls-2" d="M76.85,126.17c-13.15,1.66-17.53,5.09-17.53,10,0,4.28,2.92,6.16,7,6.16s7-1.93,10.54-5.25Z" transform="translate(-10.87 -12.3)"/><path class="cls-2" d="M177.08,54.94,107.36,14.69a17.84,17.84,0,0,0-17.85,0L19.79,54.94A17.85,17.85,0,0,0,10.87,70.4v80.5a17.85,17.85,0,0,0,8.92,15.46l69.72,40.25a17.84,17.84,0,0,0,17.85,0l69.72-40.25A17.85,17.85,0,0,0,186,150.9V70.4A17.85,17.85,0,0,0,177.08,54.94Zm2.85,96.18a11.4,11.4,0,0,1-5.7,9.88l-70.09,40.47a11.4,11.4,0,0,1-11.41,0L22.64,161a11.4,11.4,0,0,1-5.7-9.88V70.19a11.4,11.4,0,0,1,5.7-9.88L92.73,19.84a11.4,11.4,0,0,1,11.41,0l70.09,40.47a11.4,11.4,0,0,1,5.7,9.88Z" transform="translate(-10.87 -12.3)"/></svg>